<svg xmlns="http://www.w3.org/2000/svg" width="1200" height="630" viewBox="0 0 1200 630" role="img" aria-label="Neural Junkie knowledge graph preview">
  <defs>
    <radialGradient id="bg" cx="50%" cy="45%" r="70%">
      <stop offset="0%" stop-color="#16213e"/>
      <stop offset="100%" stop-color="#0b1220"/>
    </radialGradient>
  </defs>
  <rect width="1200" height="630" fill="url(#bg)"/>
  <g stroke="#334155" stroke-width="1.2" opacity="0.85">
    <line x1="600" y1="300" x2="360" y2="180"/>
    <line x1="600" y1="300" x2="840" y2="170"/>
    <line x1="600" y1="300" x2="320" y2="420"/>
    <line x1="600" y1="300" x2="880" y2="430"/>
    <line x1="360" y1="180" x2="220" y2="120"/>
    <line x1="360" y1="180" x2="280" y2="260"/>
    <line x1="840" y1="170" x2="980" y2="120"/>
    <line x1="840" y1="170" x2="920" y2="260"/>
    <line x1="320" y1="420" x2="200" y2="500"/>
    <line x1="880" y1="430" x2="1020" y2="500"/>
    <line x1="360" y1="180" x2="840" y2="170"/>
    <line x1="320" y1="420" x2="880" y2="430"/>
  </g>
  <g>
    <circle cx="600" cy="300" r="18" fill="#e94560"/>
    <circle cx="360" cy="180" r="14" fill="#533483"/>
    <circle cx="840" cy="170" r="14" fill="#0f3460"/>
    <circle cx="320" cy="420" r="12" fill="#16a34a"/>
    <circle cx="880" cy="430" r="12" fill="#ca8a04"/>
    <circle cx="220" cy="120" r="8" fill="#db2777"/>
    <circle cx="280" cy="260" r="8" fill="#0891b2"/>
    <circle cx="980" cy="120" r="8" fill="#4f46e5"/>
    <circle cx="920" cy="260" r="8" fill="#ea580c"/>
    <circle cx="200" cy="500" r="8" fill="#059669"/>
    <circle cx="1020" cy="500" r="8" fill="#e94560"/>
    <circle cx="480" cy="140" r="7" fill="#533483"/>
    <circle cx="720" cy="140" r="7" fill="#0f3460"/>
    <circle cx="500" cy="480" r="7" fill="#16a34a"/>
    <circle cx="700" cy="490" r="7" fill="#ca8a04"/>
  </g>
  <rect x="40" y="40" width="220" height="200" rx="10" fill="#111827" stroke="#1e293b"/>
  <text x="56" y="70" fill="#94a3b8" font-family="DM Sans, system-ui, sans-serif" font-size="12" letter-spacing="1.5">COMMUNITIES</text>
  <circle cx="62" cy="98" r="5" fill="#e94560"/><text x="78" y="102" fill="#e2e8f0" font-family="DM Sans, system-ui, sans-serif" font-size="13">internal/hub (96)</text>
  <circle cx="62" cy="126" r="5" fill="#533483"/><text x="78" y="130" fill="#e2e8f0" font-family="DM Sans, system-ui, sans-serif" font-size="13">internal/agent (71)</text>
  <circle cx="62" cy="154" r="5" fill="#0f3460"/><text x="78" y="158" fill="#e2e8f0" font-family="DM Sans, system-ui, sans-serif" font-size="13">desktop/src (56)</text>
  <circle cx="62" cy="182" r="5" fill="#16a34a"/><text x="78" y="186" fill="#e2e8f0" font-family="DM Sans, system-ui, sans-serif" font-size="13">internal/repo (40)</text>
  <circle cx="62" cy="210" r="5" fill="#ca8a04"/><text x="78" y="214" fill="#e2e8f0" font-family="DM Sans, system-ui, sans-serif" font-size="13">cmd/server (30)</text>
  <text x="600" y="580" text-anchor="middle" fill="#e2e8f0" font-family="DM Sans, system-ui, sans-serif" font-size="28" font-weight="700">Neural Junkie Knowledge Graph</text>
  <text x="600" y="610" text-anchor="middle" fill="#94a3b8" font-family="DM Sans, system-ui, sans-serif" font-size="16">Query · Path · Explain  local, provenance-tagged edges</text>
</svg>
